<?xml version="1.0" encoding="UTF-8" standalone="no"?>
<!-- Created with Inkscape (http://www.inkscape.org/) -->

<svg
   xmlns:dc="http://purl.org/dc/elements/1.1/"
   xmlns:cc="http://creativecommons.org/ns#"
   xmlns:rdf="http://www.w3.org/1999/02/22-rdf-syntax-ns#"
   xmlns:svg="http://www.w3.org/2000/svg"
   xmlns="http://www.w3.org/2000/svg"
   xmlns:sodipodi="http://sodipodi.sourceforge.net/DTD/sodipodi-0.dtd"
   xmlns:inkscape="http://www.inkscape.org/namespaces/inkscape"
   width="210mm"
   height="297mm"
   viewBox="0 0 210 297"
   version="1.1"
   id="svg8"
   inkscape:version="0.92.3 (2405546, 2018-03-11)"
   sodipodi:docname="Corgi Ikona - Bílá výplň.svg">
  <defs
     id="defs2" />
  <sodipodi:namedview
     id="base"
     pagecolor="#ffffff"
     bordercolor="#666666"
     borderopacity="1.0"
     inkscape:pageopacity="0.0"
     inkscape:pageshadow="2"
     inkscape:zoom="0.35"
     inkscape:cx="-219.1235"
     inkscape:cy="275.10099"
     inkscape:document-units="mm"
     inkscape:current-layer="layer1"
     showgrid="false"
     inkscape:window-width="1920"
     inkscape:window-height="1018"
     inkscape:window-x="-8"
     inkscape:window-y="-8"
     inkscape:window-maximized="1" />
  <metadata
     id="metadata5">
    <rdf:RDF>
      <cc:Work
         rdf:about="">
        <dc:format>image/svg+xml</dc:format>
        <dc:type
           rdf:resource="http://purl.org/dc/dcmitype/StillImage" />
        <dc:title></dc:title>
      </cc:Work>
    </rdf:RDF>
  </metadata>
  <g
     inkscape:label="Vrstva 1"
     inkscape:groupmode="layer"
     id="layer1">
    <g
       id="g858"
       transform="matrix(1.0017618,0,0,1.0017618,-144.64579,38.590268)">
      <g
         style="stroke-width:3.77952766;stroke-miterlimit:4;stroke-dasharray:none"
         id="g5192">
        <path
           style="fill:none;stroke:#000000;stroke-width:3.77952766;stroke-linecap:butt;stroke-linejoin:miter;stroke-miterlimit:4;stroke-dasharray:none;stroke-opacity:1"
           d="m 250.57064,63.72624 23.09816,-0.708069 c 0,0 54.87537,-54.5213389 56.64555,-55.5834429 1.77017,-1.062104 9.91297,21.9501499 9.91297,21.9501499 l -31.15505,84.968322 -24.78243,63.72624 -33.98733,14.51542"
           id="path5140"
           inkscape:connector-curvature="0"
           sodipodi:nodetypes="ccccccc" />
        <path
           style="fill:none;stroke:#000000;stroke-width:3.77952766;stroke-linecap:butt;stroke-linejoin:miter;stroke-miterlimit:4;stroke-dasharray:none;stroke-opacity:1"
           d="m 250.57064,63.72624 -23.63442,-0.70807 c 0,0 -54.87537,-54.521338 -56.64555,-55.583442 -1.77017,-1.062104 -9.91297,21.950149 -9.91297,21.950149 l 31.15505,84.968323 24.78243,63.72624 33.98733,14.51542"
           id="path5140-7"
           inkscape:connector-curvature="0"
           sodipodi:nodetypes="ccccccc" />
      </g>
      <path
         inkscape:connector-curvature="0"
         id="path5194"
         d="m 216.31518,178.07944 9.99247,-35.56202 23.28165,-11.26531 23.78233,9.26259 10.91821,37.56474"
         style="fill:none;stroke:#000000;stroke-width:1.88976383;stroke-linecap:butt;stroke-linejoin:miter;stroke-miterlimit:4;stroke-dasharray:none;stroke-opacity:1" />
      <path
         transform="matrix(1.0008329,-0.04298745,0.02749024,0.64002726,-4.4259954,59.653069)"
         inkscape:transform-center-y="-0.49093343"
         inkscape:transform-center-x="0.045950765"
         d="m 260.35393,159.54056 -20.02601,-0.0892 -6.1035,-19.07345 16.25384,-11.6988 16.14893,11.8432 z"
         inkscape:randomized="0"
         inkscape:rounded="0"
         inkscape:flatsided="true"
         sodipodi:arg2="1.5752528"
         sodipodi:arg1="0.94693421"
         sodipodi:r2="9.6068192"
         sodipodi:r1="17.035316"
         sodipodi:cy="145.71422"
         sodipodi:cx="250.40234"
         sodipodi:sides="5"
         id="path5225"
         style="fill:#000000;fill-opacity:1;stroke:#000000;stroke-width:0.24944882;stroke-miterlimit:4;stroke-dasharray:none;stroke-opacity:1"
         sodipodi:type="star" />
      <path
         inkscape:connector-curvature="0"
         id="path5229"
         d="M 192.9489,116.12337 204.98607,76.117454 226.93622,63.01817"
         style="fill:none;stroke:#000000;stroke-width:1.88976383;stroke-linecap:butt;stroke-linejoin:miter;stroke-miterlimit:4;stroke-dasharray:none;stroke-opacity:1" />
      <path
         inkscape:connector-curvature="0"
         id="path5229-9"
         d="M 307.65612,116.12337 295.61895,76.117454 273.6688,63.018171"
         style="fill:none;stroke:#000000;stroke-width:1.88976383;stroke-linecap:butt;stroke-linejoin:miter;stroke-miterlimit:4;stroke-dasharray:none;stroke-opacity:1" />
      <circle
         r="5.6645546"
         cy="116.47741"
         cx="224.81201"
         id="path5263"
         style="fill:#000000;fill-opacity:1;stroke:#000000;stroke-width:0.24944882;stroke-miterlimit:4;stroke-dasharray:none;stroke-opacity:1" />
      <circle
         r="5.6645546"
         cy="116.12337"
         cx="275.43896"
         id="path5263-7"
         style="fill:#000000;fill-opacity:1;stroke:#000000;stroke-width:0.24944882;stroke-miterlimit:4;stroke-dasharray:none;stroke-opacity:1" />
      <rect
         inkscape:export-ydpi="254.95381"
         inkscape:export-xdpi="254.95381"
         inkscape:export-filename="C:\Users\Minsqui\Pictures\Corgi Ikona\web.png"
         inkscape:transform-center-y="-30.541519"
         inkscape:transform-center-x="-2.0027225"
         y="4.239079"
         x="154.79323"
         height="192"
         width="192"
         id="rect828"
         style="fill:#0000ff;fill-opacity:0;stroke:#000000;stroke-width:0.78784186;stroke-miterlimit:4;stroke-dasharray:none;stroke-opacity:0" />
      <rect
         y="191.85461"
         x="249.96913"
         height="2.048183"
         width="0.6736064"
         id="rect830"
         style="fill:#0000ff;fill-opacity:0;stroke:#000000;stroke-width:0.87793863;stroke-miterlimit:4;stroke-dasharray:none;stroke-opacity:1" />
    </g>
    <path
       style="opacity:1;fill:#ffffff;fill-opacity:1;stroke:#0f0e0e;stroke-width:1.35220945;stroke-linecap:butt;stroke-linejoin:miter;stroke-miterlimit:4;stroke-dasharray:none;stroke-dashoffset:0;stroke-opacity:1;paint-order:stroke fill markers"
       d="M 33.31487,108.97525 18.356272,68.110883 19.661458,64.438524 c 0.717862,-2.019802 2.412152,-6.333919 3.765092,-9.586931 l 2.459886,-5.914572 17.633412,17.134515 c 30.184245,29.330253 36.386693,35.781164 35.164243,36.572884 -0.590328,0.38232 -5.122699,3.11412 -10.071953,6.07067 l -8.998636,5.37555 -5.312253,17.87543 c -2.921728,9.83149 -5.473236,17.875 -5.670012,17.87449 -0.196776,-5.1e-4 -7.089138,-18.3899 -15.316367,-40.86531 z"
       id="path860"
       inkscape:connector-curvature="0" />
    <path
       style="opacity:1;fill:#ffffff;fill-opacity:1;stroke:#0f0e0e;stroke-width:1.35220945;stroke-linecap:butt;stroke-linejoin:miter;stroke-miterlimit:4;stroke-dasharray:none;stroke-dashoffset:0;stroke-opacity:1;paint-order:stroke fill markers"
       d="m 162.88457,148.34067 c -0.34737,-0.94007 -2.82571,-9.05507 -5.50746,-18.03333 l -4.87591,-16.32413 -9.71788,-5.76674 c -5.34483,-3.17171 -9.87887,-5.92573 -10.07565,-6.12004 -0.19677,-0.19431 11.71704,-12.20975 26.47514,-26.700986 l 26.83291,-26.347698 1.294,2.508532 c 1.77092,3.433078 6.21921,15.18146 6.21921,16.425568 0,0.943759 -29.19013,81.182464 -29.75444,81.789914 -0.14211,0.15297 -0.54257,-0.49102 -0.88992,-1.43109 z"
       id="path862"
       inkscape:connector-curvature="0" />
    <path
       style="opacity:1;fill:#ffffff;fill-opacity:1;stroke:#0f0e0e;stroke-width:1.35220945;stroke-linecap:butt;stroke-linejoin:miter;stroke-miterlimit:4;stroke-dasharray:none;stroke-dashoffset:0;stroke-opacity:1;paint-order:stroke fill markers"
       d="M 61.306579,183.33942 C 55.304213,167.87263 50.40119,154.735 50.410967,154.14467 c 0.01002,-0.59033 2.537403,-9.44518 5.616939,-19.67747 l 5.599157,-18.60415 9.532425,-5.81509 9.532425,-5.81511 25.412827,0.007 25.41283,0.008 9.00269,5.37741 c 4.95149,2.9576 9.23692,5.57983 9.52319,5.8272 0.28627,0.24738 3.12733,9.12061 6.31349,19.71832 l 5.79298,19.26855 -10.91335,28.11664 c -6.00235,15.46417 -11.09738,28.1149 -11.32228,28.11276 -0.22492,-0.002 -2.4874,-7.24649 -5.02772,-16.09857 l -4.61878,-16.09469 -12.09659,-4.74181 c -14.23581,-5.58037 -12.18937,-5.73583 -27.314501,2.07497 l -10.009253,5.1689 -3.99189,14.31089 c -2.195542,7.87098 -4.136716,14.72972 -4.313737,15.24164 -0.177011,0.51191 -5.232873,-11.72389 -11.23524,-27.19068 z M 84.51165,159.60398 c 4.452431,-3.82981 1.089206,-11.13183 -4.700496,-10.20543 -3.177399,0.50842 -5.062554,2.71704 -5.062554,5.93124 0,5.21812 5.74279,7.73227 9.76305,4.27419 z m 48.94222,0.98059 c 1.49431,0 3.54707,-3.26066 3.54707,-5.63427 0,-3.40983 -2.32589,-5.81444 -5.62408,-5.81444 -4.51028,0 -7.12302,4.37038 -5.35976,8.96535 0.54175,1.41177 4.46568,3.29848 5.85467,2.81504 0.52412,-0.18242 1.23607,-0.33168 1.5821,-0.33168 z"
       id="path864"
       inkscape:connector-curvature="0" />
    <path
       style="opacity:1;fill:#ffffff;fill-opacity:1;stroke:#0f0e0e;stroke-width:1.35220945;stroke-linecap:butt;stroke-linejoin:miter;stroke-miterlimit:4;stroke-dasharray:none;stroke-dashoffset:0;stroke-opacity:1;paint-order:stroke fill markers"
       d="m 89.953912,222.30851 c -8.75647,-3.77455 -15.907727,-7.21226 -15.891689,-7.63935 0.01603,-0.42711 2.040959,-7.85717 4.499804,-16.51127 l 4.470642,-15.73473 2.834515,-1.60545 c 1.558992,-0.883 3.061725,-1.61075 3.339413,-1.61722 0.277689,-0.006 1.88766,2.59425 3.577723,5.7794 l 3.072834,5.79117 6.370936,-0.42459 c 3.50401,-0.23352 8.18659,-0.42459 10.40571,-0.42459 h 4.03478 l 2.71369,-6.02535 2.71369,-6.02536 3.03698,1.12558 3.03698,1.12558 4.88841,16.88514 c 2.68863,9.28683 5.00338,17.21291 5.14389,17.61351 0.18507,0.52765 -28.21809,13.37638 -31.88589,14.4242 -0.24286,0.0694 -7.605948,-2.96212 -16.362418,-6.73667 z"
       id="path866"
       inkscape:connector-curvature="0" />
  </g>
</svg>
