<?xml version="1.0" encoding="UTF-8" standalone="no"?>
<!-- Created with Inkscape (http://www.inkscape.org/) -->

<svg
   xmlns:dc="http://purl.org/dc/elements/1.1/"
   xmlns:cc="http://creativecommons.org/ns#"
   xmlns:rdf="http://www.w3.org/1999/02/22-rdf-syntax-ns#"
   xmlns:svg="http://www.w3.org/2000/svg"
   xmlns="http://www.w3.org/2000/svg"
   xmlns:sodipodi="http://sodipodi.sourceforge.net/DTD/sodipodi-0.dtd"
   xmlns:inkscape="http://www.inkscape.org/namespaces/inkscape"
   width="210mm"
   height="297mm"
   viewBox="0 0 210 297"
   version="1.1"
   id="svg8"
   inkscape:version="0.92.3 (2405546, 2018-03-11)"
   sodipodi:docname="Ikona - NotARockstar.svg">
  <defs
     id="defs2" />
  <sodipodi:namedview
     id="base"
     pagecolor="#ffffff"
     bordercolor="#666666"
     borderopacity="1.0"
     inkscape:pageopacity="0.0"
     inkscape:pageshadow="2"
     inkscape:zoom="0.7"
     inkscape:cx="-71.863176"
     inkscape:cy="792.90522"
     inkscape:document-units="mm"
     inkscape:current-layer="layer1"
     showgrid="true"
     inkscape:window-width="1920"
     inkscape:window-height="1018"
     inkscape:window-x="-8"
     inkscape:window-y="-8"
     inkscape:window-maximized="1">
    <inkscape:grid
       type="xygrid"
       id="grid2388" />
  </sodipodi:namedview>
  <metadata
     id="metadata5">
    <rdf:RDF>
      <cc:Work
         rdf:about="">
        <dc:format>image/svg+xml</dc:format>
        <dc:type
           rdf:resource="http://purl.org/dc/dcmitype/StillImage" />
        <dc:title></dc:title>
      </cc:Work>
    </rdf:RDF>
  </metadata>
  <g
     inkscape:label="Vrstva 1"
     inkscape:groupmode="layer"
     id="layer1">
    <rect
       style="opacity:1;fill:#ffc107;fill-opacity:1;stroke:#000000;stroke-width:5;stroke-linecap:butt;stroke-linejoin:miter;stroke-miterlimit:4;stroke-dasharray:none;stroke-dashoffset:0;stroke-opacity:1;paint-order:stroke fill markers"
       id="rect815"
       width="128.5119"
       height="128.5119"
       x="42.333336"
       y="83.821419"
       ry="25.324404"
       rx="25.324404" />
    <g
       id="g2386"
       transform="matrix(0.45681006,0,0,0.45681006,-8.1815698,104.75105)">
      <g
         style="stroke-width:3.77952766;stroke-miterlimit:4;stroke-dasharray:none"
         id="g5192">
        <path
           style="fill:none;stroke:#000000;stroke-width:3.77952766;stroke-linecap:butt;stroke-linejoin:miter;stroke-miterlimit:4;stroke-dasharray:none;stroke-opacity:1"
           d="m 250.57064,63.72624 23.09816,-0.708069 c 0,0 54.87537,-54.5213389 56.64555,-55.5834429 1.77017,-1.062104 9.91297,21.9501499 9.91297,21.9501499 l -31.15505,84.968322 -24.78243,63.72624 -33.98733,14.51542"
           id="path5140"
           inkscape:connector-curvature="0"
           sodipodi:nodetypes="ccccccc" />
        <path
           style="fill:none;stroke:#000000;stroke-width:3.77952766;stroke-linecap:butt;stroke-linejoin:miter;stroke-miterlimit:4;stroke-dasharray:none;stroke-opacity:1"
           d="m 250.57064,63.72624 -23.63442,-0.70807 c 0,0 -54.87537,-54.521338 -56.64555,-55.583442 -1.77017,-1.062104 -9.91297,21.950149 -9.91297,21.950149 l 31.15505,84.968323 24.78243,63.72624 33.98733,14.51542"
           id="path5140-7"
           inkscape:connector-curvature="0"
           sodipodi:nodetypes="ccccccc" />
      </g>
      <path
         inkscape:connector-curvature="0"
         id="path5194"
         d="m 216.31518,178.07944 9.99247,-35.56202 23.28165,-11.26531 23.78233,9.26259 10.91821,37.56474"
         style="fill:none;stroke:#000000;stroke-width:1.88976383;stroke-linecap:butt;stroke-linejoin:miter;stroke-miterlimit:4;stroke-dasharray:none;stroke-opacity:1" />
      <path
         transform="matrix(1.0008329,-0.04298745,0.02749024,0.64002726,-4.4259954,59.653069)"
         inkscape:transform-center-y="-0.49093343"
         inkscape:transform-center-x="0.045950765"
         d="m 260.35393,159.54056 -20.02601,-0.0892 -6.1035,-19.07345 16.25384,-11.6988 16.14893,11.8432 z"
         inkscape:randomized="0"
         inkscape:rounded="0"
         inkscape:flatsided="true"
         sodipodi:arg2="1.5752528"
         sodipodi:arg1="0.94693421"
         sodipodi:r2="9.6068192"
         sodipodi:r1="17.035316"
         sodipodi:cy="145.71422"
         sodipodi:cx="250.40234"
         sodipodi:sides="5"
         id="path5225"
         style="fill:#000000;fill-opacity:1;stroke:#000000;stroke-width:0.24944882;stroke-miterlimit:4;stroke-dasharray:none;stroke-opacity:1"
         sodipodi:type="star" />
      <path
         inkscape:connector-curvature="0"
         id="path5229"
         d="M 192.9489,116.12337 204.98607,76.117454 226.93622,63.01817"
         style="fill:none;stroke:#000000;stroke-width:1.88976383;stroke-linecap:butt;stroke-linejoin:miter;stroke-miterlimit:4;stroke-dasharray:none;stroke-opacity:1" />
      <path
         inkscape:connector-curvature="0"
         id="path5229-9"
         d="M 307.65612,116.12337 295.61895,76.117454 273.6688,63.018171"
         style="fill:none;stroke:#000000;stroke-width:1.88976383;stroke-linecap:butt;stroke-linejoin:miter;stroke-miterlimit:4;stroke-dasharray:none;stroke-opacity:1" />
      <circle
         r="5.6645546"
         cy="116.47741"
         cx="224.81201"
         id="path5263"
         style="fill:#000000;fill-opacity:1;stroke:#000000;stroke-width:0.24944882;stroke-miterlimit:4;stroke-dasharray:none;stroke-opacity:1" />
      <circle
         r="5.6645546"
         cy="116.12337"
         cx="275.43896"
         id="path5263-7"
         style="fill:#000000;fill-opacity:1;stroke:#000000;stroke-width:0.24944882;stroke-miterlimit:4;stroke-dasharray:none;stroke-opacity:1" />
      <rect
         inkscape:export-ydpi="254.95381"
         inkscape:export-xdpi="254.95381"
         inkscape:export-filename="C:\Users\Minsqui\Pictures\Corgi Ikona\web.png"
         inkscape:transform-center-y="-30.541519"
         inkscape:transform-center-x="-2.0027225"
         y="4.239079"
         x="154.79323"
         height="192"
         width="192"
         id="rect828"
         style="fill:#0000ff;fill-opacity:0;stroke:#000000;stroke-width:0.78784186;stroke-miterlimit:4;stroke-dasharray:none;stroke-opacity:0" />
      <rect
         y="191.85461"
         x="249.96913"
         height="2.048183"
         width="0.6736064"
         id="rect830"
         style="fill:#0000ff;fill-opacity:0;stroke:#000000;stroke-width:0.87793863;stroke-miterlimit:4;stroke-dasharray:none;stroke-opacity:1" />
    </g>
    <path
       style="opacity:1;fill:#ffffff;fill-opacity:1;stroke:#ffffff;stroke-width:1.88976371;stroke-miterlimit:4;stroke-dasharray:none;stroke-dashoffset:0;stroke-opacity:1"
       d="m 490.57356,558.02243 -9.59029,-31.88818 -17.25813,-10.297 c -9.49197,-5.66336 -17.33452,-10.42061 -17.42788,-10.57167 -0.21801,-0.35275 75.29501,-75.03471 90.26526,-89.27184 l 2.76537,-2.62995 1.75351,3.71866 c 2.23832,4.74679 5.68049,13.1922 9.10096,22.32929 l 2.68859,7.18205 -26.23076,71.53562 c -14.42692,39.34458 -26.28602,71.59087 -26.35356,71.6584 -0.0675,0.0675 -4.43841,-14.22688 -9.71307,-31.76538 z"
       id="path2392"
       inkscape:connector-curvature="0"
       transform="scale(0.26458333)" />
    <path
       style="opacity:1;fill:#ffffff;fill-opacity:1;stroke:#ffffff;stroke-width:1.88976371;stroke-miterlimit:4;stroke-dasharray:none;stroke-dashoffset:0;stroke-opacity:1"
       d="M 276.91574,521.1034 C 263.02771,483.22285 251.1983,450.94397 250.62815,449.37254 l -1.03662,-2.85714 2.76914,-7.32143 c 3.82752,-10.11972 7.10344,-18.11088 9.11656,-22.23865 l 1.70143,-3.48865 2.00567,1.85018 c 7.20547,6.64682 91.12313,89.45568 91.10174,89.89801 -0.006,0.12601 -7.58525,4.72911 -16.84256,10.22911 -9.25731,5.5 -17.11886,10.24107 -17.4701,10.53571 -0.42611,0.35744 -3.7377,10.87587 -9.95109,31.60715 -5.12186,17.08928 -9.43467,31.36817 -9.58404,31.73085 -0.19067,0.46298 -7.79419,-19.85899 -25.52254,-68.21428 z"
       id="path2394"
       inkscape:connector-curvature="0"
       transform="scale(0.26458333)" />
    <path
       style="opacity:1;fill:#ffffff;fill-opacity:1;stroke:#ffffff;stroke-width:1.88976371;stroke-miterlimit:4;stroke-dasharray:none;stroke-dashoffset:0;stroke-opacity:1"
       d="m 342.57003,694.0154 c -0.23068,-0.58929 -8.93358,-22.97046 -19.3398,-49.73593 l -18.92039,-48.6645 10.09656,-33.55618 10.09657,-33.55618 17.26942,-10.27932 c 9.49818,-5.65363 17.38094,-10.25058 17.51724,-10.21546 0.1363,0.0351 9.47015,0.34585 20.74187,0.6905 18.18252,0.55595 22.4223,0.57469 37.58995,0.16613 9.40275,-0.25327 19.07645,-0.564 21.49711,-0.69049 l 4.40121,-0.23 17.26268,10.35714 17.26268,10.35714 9.94121,33.03572 c 5.46766,18.16964 9.96824,33.29128 10.00128,33.60364 0.0976,0.92218 -38.42865,99.64531 -38.69693,99.16062 -0.13482,-0.24356 -3.95111,-13.20007 -8.48065,-28.79224 -4.52954,-15.59218 -8.28982,-28.40371 -8.35618,-28.47007 -0.13591,-0.1359 -42.30355,-16.57338 -42.51629,-16.57338 -0.17059,0 -41.40223,19.96419 -41.56237,20.12433 -0.0642,0.0642 -3.4955,12.15629 -7.62502,26.87123 -4.12952,14.71494 -7.56504,26.91515 -7.63448,27.11158 -0.0695,0.19643 -0.315,-0.125 -0.54567,-0.71428 z m 19.23208,-88.07673 c 3.85885,-1.92829 5.64084,-5.26512 5.30659,-9.93674 -0.37762,-5.27766 -4.3786,-9.00246 -9.67377,-9.006 -4.24411,-0.003 -7.33695,1.84988 -9.15218,5.4825 -4.37358,8.7523 4.75426,17.84021 13.51936,13.46024 z M 448.44,605.79976 c 2.32802,-0.97587 4.02485,-2.60098 5.19271,-4.97323 1.05609,-2.14523 1.13765,-2.5547 0.98239,-4.93243 -0.19723,-3.02041 -1.01408,-4.84626 -3.01984,-6.75007 -1.99426,-1.8929 -3.53211,-2.54335 -6.46253,-2.73343 -2.36861,-0.15363 -2.79181,-0.0703 -4.89058,0.96292 -3.74871,1.84548 -5.64393,4.85362 -5.6524,8.97164 -0.0148,7.20118 7.30533,12.19813 13.85025,9.4546 z"
       id="path2396"
       inkscape:connector-curvature="0"
       transform="scale(0.26458333)" />
    <path
       style="opacity:1;fill:#ffffff;fill-opacity:1;stroke:#ffffff;stroke-width:1.88976371;stroke-miterlimit:4;stroke-dasharray:none;stroke-dashoffset:0;stroke-opacity:1"
       d="m 372.99357,712.67712 c -15.1741,-6.50025 -27.59721,-11.99226 -27.6069,-12.20447 -0.01,-0.2122 3.5662,-13.18559 7.94643,-28.82975 l 7.96405,-28.44392 5.86591,-2.79762 c 3.22625,-1.53869 5.92538,-2.64071 5.99805,-2.44893 0.0727,0.19177 2.51323,4.60761 5.42344,9.81297 l 5.2913,9.46428 7.63922,-0.11494 c 4.20157,-0.0632 12.13793,-0.30429 17.63634,-0.53572 l 9.99713,-0.42077 4.66576,-10.07955 c 2.56617,-5.54375 4.74479,-10.15858 4.84138,-10.25517 0.0966,-0.0966 2.56642,0.75951 5.48852,1.90243 4.04213,1.581 5.38133,2.26302 5.59898,2.8514 0.67236,1.81756 17.51195,60.09832 17.39604,60.20662 -0.4058,0.37917 -55.59321,23.76227 -56.02845,23.73946 -0.29035,-0.0152 -12.94309,-5.34606 -28.1172,-11.84632 z"
       id="path2398"
       inkscape:connector-curvature="0"
       transform="scale(0.26458333)" />
  </g>
</svg>
