<?xml version="1.0" encoding="UTF-8" standalone="no"?>
<!-- Created with Inkscape (http://www.inkscape.org/) -->

<svg xmlns:dc="http://purl.org/dc/elements/1.1/" xmlns:cc="http://creativecommons.org/ns#" xmlns:rdf="http://www.w3.org/1999/02/22-rdf-syntax-ns#"
    xmlns="http://www.w3.org/2000/svg" xmlns:sodipodi="http://sodipodi.sourceforge.net/DTD/sodipodi-0.dtd"
    xmlns:inkscape="http://www.inkscape.org/namespaces/inkscape" width="210mm" height="297mm"
    viewBox="0 0 210 297" version="1.1" id="svg8" inkscape:version="0.92.4 (5da689c313, 2019-01-14)"
    sodipodi:docname="mapa.svg">
  <defs
     id="defs2" />
  <sodipodi:namedview
     id="base"
     pagecolor="#ffffff"
     bordercolor="#666666"
     borderopacity="1.0"
     inkscape:pageopacity="0.0"
     inkscape:pageshadow="2"
     inkscape:zoom="0.98994949"
     inkscape:cx="422.06446"
     inkscape:cy="668.72323"
     inkscape:document-units="mm"
     inkscape:current-layer="layer1"
     showgrid="false"
     inkscape:window-width="1920"
     inkscape:window-height="1001"
     inkscape:window-x="-9"
     inkscape:window-y="-9"
     inkscape:window-maximized="1" />
  <metadata
     id="metadata5">
    <rdf:RDF>
      <cc:Work
         rdf:about="">
        <dc:format>image/svg+xml</dc:format>
        <dc:type
           rdf:resource="http://purl.org/dc/dcmitype/StillImage" />
        <dc:title></dc:title>
      </cc:Work>
    </rdf:RDF>
  </metadata>
  <g
     inkscape:label="Vrstva 1"
     inkscape:groupmode="layer"
     id="layer1">
    <rect
       style="fill:#000000;fill-opacity:1;stroke-width:0.20481986"
       id="rect817"
       width="12.973583"
       height="37.239014"
       x="182.53729"
       y="-17.380215"
       transform="matrix(0.57381293,0.8189864,-0.78211761,0.62313085,0,0)" />
    <rect
       style="fill:#000000;fill-opacity:1;stroke-width:0.20676193"
       id="rect817-8"
       width="12.965952"
       height="37.970886"
       x="157.66077"
       y="26.430386"
       transform="matrix(0.65061376,0.7594088,-0.7898983,0.61323786,0,0)"
       inkscape:transform-center-x="-13.332908"
       inkscape:transform-center-y="0.79895002" />
    <rect
       style="fill:#000000;fill-opacity:1;stroke-width:0.18917145"
       id="rect817-3"
       width="11.885172"
       height="34.675259"
       x="-27.880892"
       y="181.0231"
       transform="matrix(0.67496867,-0.73784639,0.71334675,0.70081126,0,0)" />
    <rect
       style="fill:#000000;fill-opacity:1;stroke-width:0.19831204"
       id="rect817-5"
       width="12.876052"
       height="35.174622"
       x="-40.754536"
       y="151.36809"
       transform="matrix(0.62979476,-0.77676159,0.6557305,0.75499504,0,0)" />
    <path
       style="fill:none;stroke:#000000;stroke-width:0.26458332px;stroke-linecap:butt;stroke-linejoin:miter;stroke-opacity:1"
       d="M 98.889724,145.45817 113.055,121.13664 c 0,0 4.54359,-6.41446 -0.26726,-13.0962 0,0 -12.62849,-14.499368 -25.925144,0.20045 0,0 -3.474503,5.41221 10e-7,11.96031 z"
       id="path846"
       inkscape:connector-curvature="0"
       sodipodi:nodetypes="cccccc" />
    <ellipse
       style="fill:#ffffff;fill-opacity:1;stroke-width:0.26458332"
       id="path848"
       cx="99.825165"
       cy="113.92036"
       rx="8.1517153"
       ry="5.3453851" />
    <path
       style="fill:#000000;fill-opacity:1;stroke-width:0.50507629"
       d="m 370.55318,544.18781 c -1.095,-2.32394 -11.78713,-24.54204 -23.76027,-49.68221 -14.06676,-29.53616 -21.75186,-47.31779 -22.6423,-50.25509 -1.22492,-4.04064 -2.13681,-6.36953 -2.14613,-12.87945 -0.009,-6.02491 1.45385,-9.59187 2.38927,-13.08538 2.00705,-7.49567 3.12204,-10.11692 8.06314,-14.9464 18.56701,-18.14756 41.34075,-23.12541 62.14459,-16.33756 10.04132,3.27627 23.81777,13.57325 31.6829,21.34011 4.26573,4.21242 2.65247,2.6998 4.68107,6.86679 3.46352,7.11453 4.36497,10.05885 4.31554,18.43529 -0.0364,6.16205 -0.72186,7.64657 -1.90846,11.54788 -0.74891,2.46224 -1.24359,5.50532 -2.02532,7.07106 -1.04326,2.08963 -42.66009,72.79157 -53.61136,90.9148 l -3.97941,6.58552 z"
       id="path870"
       inkscape:connector-curvature="0"
       transform="scale(0.26458333)"
       sodipodi:nodetypes="cssccsscccccscc" />
    <ellipse
       style="fill:#ffffff;fill-opacity:1;stroke-width:0.59243286"
       id="path872"
       cx="99.958801"
       cy="115.10878"
       rx="7.6171808"
       ry="7.6314993" />
  </g>
</svg>
